<?xml version="1.0" encoding="UTF-8" standalone="no"?>
<!DOCTYPE svg PUBLIC "-//W3C//DTD SVG 1.1//EN" "http://www.w3.org/Graphics/SVG/1.1/DTD/svg11.dtd">
<svg width="100%" height="100%" viewBox="0 0 2198 828" version="1.1" xmlns="http://www.w3.org/2000/svg" xmlns:xlink="http://www.w3.org/1999/xlink" xml:space="preserve" xmlns:serif="http://www.serif.com/" style="fill-rule:evenodd;clip-rule:evenodd;stroke-linejoin:round;stroke-miterlimit:2;">
    <g transform="matrix(0.886082,0,0,0.473339,0,0)">
        <rect id="Artboard1" x="0" y="0" width="2480.32" height="1748.03" style="fill:none;"/>
        <g id="Artboard11" serif:id="Artboard1">
            <g transform="matrix(1.40485,0,0,1.73921,-300.904,-532.644)">
                <g id="Layer1">
                    <g id="Layer2">
                        <g id="_9" serif:id="9" transform="matrix(0.879523,0,0,1,31.4134,-36.4415)">
                            <g id="_91" serif:id="9" transform="matrix(1,0,0,0.713905,0,438.805)">
                                <g id="Link" transform="matrix(0.254615,0,0,1.1643,244.319,643.275)">
                                    <path d="M2132,363.472C2132,361.004 2127.08,359 2121.02,359L300.977,359C294.918,359 290,361.004 290,363.472L290,366.528C290,368.996 294.918,371 300.977,371L2121.02,371C2127.08,371 2132,368.996 2132,366.528L2132,363.472Z" style="fill:rgb(188,188,188);"/>
                                </g>
                                <g id="Link1" serif:id="Link" transform="matrix(0.624864,0,0,1.1643,821.947,643.275)">
                                    <path d="M2132,363.472C2132,361.004 2130,359 2127.53,359L294.473,359C292.004,359 290,361.004 290,363.472L290,366.528C290,368.996 292.004,371 294.473,371L2127.53,371C2130,371 2132,368.996 2132,366.528L2132,363.472Z" style="fill:rgb(188,188,188);"/>
                                </g>
                            </g>
                            <g transform="matrix(1,0,0,1.19681,11.7427,666.27)">
                                <g>
                                    <g transform="matrix(1.01316,0,0,1.12756,-3.27757,-57.182)">
                                        <path d="M480,440.717C480,428.494 470.062,418.571 457.821,418.571L271.179,418.571C258.938,418.571 249,428.494 249,440.717L249,455.854C249,468.077 258.938,478 271.179,478L457.821,478C470.062,478 480,468.077 480,455.854L480,440.717Z" style="fill:rgb(32,80,18);"/>
                                    </g>
                                    <g transform="matrix(0.564935,0,0,1.12756,508.831,-57.182)">
                                        <path d="M480,440.717C480,428.494 462.177,418.571 440.223,418.571L288.777,418.571C266.823,418.571 249,428.494 249,440.717L249,455.854C249,468.077 266.823,478 288.777,478L440.223,478C462.177,478 480,468.077 480,455.854L480,440.717Z" style="fill:rgb(32,80,18);"/>
                                    </g>
                                    <g transform="matrix(0.683941,0,0,1.12756,317.199,-57.182)">
                                        <path d="M480,440.717C480,428.494 465.278,418.571 447.145,418.571L281.855,418.571C263.722,418.571 249,428.494 249,440.717L249,455.854C249,468.077 263.722,478 281.855,478L447.145,478C465.278,478 480,468.077 480,455.854L480,440.717Z" style="fill:rgb(32,80,18);"/>
                                    </g>
                                </g>
                                <g>
                                    <g transform="matrix(0.642857,0,0,1.12756,794.429,-57.182)">
                                        <path d="M480,440.717C480,428.494 464.337,418.571 445.045,418.571L283.955,418.571C264.663,418.571 249,428.494 249,440.717L249,455.854C249,468.077 264.663,478 283.955,478L445.045,478C464.337,478 480,468.077 480,455.854L480,440.717Z" style="fill:rgb(42,48,96);"/>
                                    </g>
                                    <g transform="matrix(0.898268,0,0,1.12756,1302.83,-57.182)">
                                        <path d="M480,440.717C480,428.494 468.791,418.571 454.984,418.571L274.016,418.571C260.209,418.571 249,428.494 249,440.717L249,455.854C249,468.077 260.209,478 274.016,478L454.984,478C468.791,478 480,468.077 480,455.854L480,440.717Z" style="fill:rgb(42,48,96);"/>
                                    </g>
                                    <g transform="matrix(0.845337,0,0,1.12756,1051.13,-58.052)">
                                        <path d="M480,440.717C480,428.494 468.089,418.571 453.417,418.571L275.583,418.571C260.911,418.571 249,428.494 249,440.717L249,455.854C249,468.077 260.911,478 275.583,478L453.417,478C468.089,478 480,468.077 480,455.854L480,440.717Z" style="fill:rgb(42,48,96);"/>
                                    </g>
                                    <g transform="matrix(0.651464,0,0,1.12756,945.297,-58.052)">
                                        <path d="M480,440.717C480,428.494 464.544,418.571 445.507,418.571L283.493,418.571C264.456,418.571 249,428.494 249,440.717L249,455.854C249,468.077 264.456,478 283.493,478L445.507,478C464.544,478 480,468.077 480,455.854L480,440.717Z" style="fill:rgb(42,48,96);"/>
                                    </g>
                                    <g transform="matrix(0.746753,0,0,1.12756,1789.97,-58.052)">
                                        <path d="M480,440.717C480,428.494 466.516,418.571 449.908,418.571L279.092,418.571C262.484,418.571 249,428.494 249,440.717L249,455.854C249,468.077 262.484,478 279.092,478L449.908,478C466.516,478 480,468.077 480,455.854L480,440.717Z" style="fill:rgb(42,48,96);"/>
                                    </g>
                                </g>
                            </g>
                        </g>
                        <g id="_8" serif:id="8" transform="matrix(0.879523,0,0,1,31.4134,-31.8863)">
                            <g id="_81" serif:id="8" transform="matrix(1,0,0,0.713905,0,438.805)">
                                <g id="Link2" serif:id="Link" transform="matrix(0.0721843,0,0,1.1643,1933.26,511.227)">
                                    <path d="M2132,363.472C2132,361.004 2114.65,359 2093.28,359L328.717,359C307.349,359 290,361.004 290,363.472L290,366.528C290,368.996 307.349,371 328.717,371L2093.28,371C2114.65,371 2132,368.996 2132,366.528L2132,363.472Z" style="fill:rgb(188,188,188);"/>
                                </g>
                                <g id="Link3" serif:id="Link" transform="matrix(0.355572,0,0,1.1643,937.078,511.227)">
                                    <path d="M2132,363.472C2132,361.004 2128.48,359 2124.14,359L297.86,359C293.522,359 290,361.004 290,363.472L290,366.528C290,368.996 293.522,371 297.86,371L2124.14,371C2128.48,371 2132,368.996 2132,366.528L2132,363.472Z" style="fill:rgb(188,188,188);"/>
                                </g>
                                <g id="Link4" serif:id="Link" transform="matrix(0.29314,0,0,1.1643,230.183,511.587)">
                                    <path d="M2132,363.472C2132,361.004 2127.73,359 2122.47,359L299.534,359C294.272,359 290,361.004 290,363.472L290,366.528C290,368.996 294.272,371 299.534,371L2122.47,371C2127.73,371 2132,368.996 2132,366.528L2132,363.472Z" style="fill:rgb(188,188,188);"/>
                                </g>
                            </g>
                            <g transform="matrix(1,0,0,1.19681,4.22498,570.903)">
                                <g>
                                    <g transform="matrix(0.601732,0,0,1.12756,151.169,-57.182)">
                                        <path d="M480,440.717C480,428.494 463.267,418.571 442.656,418.571L286.344,418.571C265.733,418.571 249,428.494 249,440.717L249,455.854C249,468.077 265.733,478 286.344,478L442.656,478C463.267,478 480,468.077 480,455.854L480,440.717Z" style="fill:rgb(79,182,46);"/>
                                    </g>
                                    <g transform="matrix(0.648719,0,0,1.12756,547.969,-57.182)">
                                        <path d="M480,440.717C480,428.494 464.479,418.571 445.361,418.571L283.639,418.571C264.521,418.571 249,428.494 249,440.717L249,455.854C249,468.077 264.521,478 283.639,478L445.361,478C464.479,478 480,468.077 480,455.854L480,440.717Z" style="fill:rgb(79,182,46);"/>
                                    </g>
                                </g>
                                <g>
                                    <g transform="matrix(0.564247,0,0,1.12756,849.661,-57.182)">
                                        <path d="M480,440.717C480,428.494 462.155,418.571 440.175,418.571L288.825,418.571C266.845,418.571 249,428.494 249,440.717L249,455.854C249,468.077 266.845,478 288.825,478L440.175,478C462.155,478 480,468.077 480,455.854L480,440.717Z" style="fill:rgb(54,101,173);"/>
                                    </g>
                                    <g transform="matrix(0.582251,0,0,1.12756,1418.52,-57.182)">
                                        <path d="M480,440.717C480,428.494 462.707,418.571 441.406,418.571L287.594,418.571C266.293,418.571 249,428.494 249,440.717L249,455.854C249,468.077 266.293,478 287.594,478L441.406,478C462.707,478 480,468.077 480,455.854L480,440.717Z" style="fill:rgb(54,101,173);"/>
                                    </g>
                                </g>
                                <g>
                                    <g transform="matrix(0.357143,0,0,1.12756,1852.57,-57.182)">
                                        <path d="M480,440.717C480,428.494 451.807,418.571 417.081,418.571L311.919,418.571C277.193,418.571 249,428.494 249,440.717L249,455.854C249,468.077 277.193,478 311.919,478L417.081,478C451.807,478 480,468.077 480,455.854L480,440.717Z" style="fill:rgb(129,90,120);"/>
                                    </g>
                                    <g transform="matrix(0.251265,0,0,1.12756,1965.39,-57.182)">
                                        <path d="M480,439.886C480,428.122 441.429,418.571 393.92,418.571L335.08,418.571C287.571,418.571 249,428.122 249,439.886L249,456.685C249,468.449 287.571,478 335.08,478L393.92,478C441.429,478 480,468.449 480,456.685L480,439.886Z" style="fill:rgb(129,90,120);"/>
                                    </g>
                                </g>
                            </g>
                        </g>
                        <g id="_7" serif:id="7" transform="matrix(0.879523,0,0,1,31.4134,-27.3311)">
                            <g id="_71" serif:id="7" transform="matrix(1,0,0,0.713905,0,438.805)">
                                <g id="Link5" serif:id="Link" transform="matrix(0.0602189,0,0,1.1643,300.771,379.179)">
                                    <path d="M2132,363.472C2132,361.004 2111.2,359 2085.59,359L336.41,359C310.796,359 290,361.004 290,363.472L290,366.528C290,368.996 310.796,371 336.41,371L2085.59,371C2111.2,371 2132,368.996 2132,366.528L2132,363.472Z" style="fill:rgb(188,188,188);"/>
                                </g>
                                <g id="Link6" serif:id="Link" transform="matrix(0.183454,0,0,1.1643,715.033,379.179)">
                                    <path d="M2132,363.472C2132,361.004 2125.17,359 2116.77,359L305.234,359C296.826,359 290,361.004 290,363.472L290,366.528C290,368.996 296.826,371 305.234,371L2116.77,371C2125.17,371 2132,368.996 2132,366.528L2132,363.472Z" style="fill:rgb(188,188,188);"/>
                                </g>
                                <g id="Link7" serif:id="Link" transform="matrix(0.229057,0,0,1.1643,1524.81,379.179)">
                                    <path d="M2132,363.472C2132,361.004 2126.53,359 2119.8,359L302.201,359C295.467,359 290,361.004 290,363.472L290,366.528C290,368.996 295.467,371 302.201,371L2119.8,371C2126.53,371 2132,368.996 2132,366.528L2132,363.472Z" style="fill:rgb(188,188,188);"/>
                                </g>
                            </g>
                            <g transform="matrix(1,0,0,1.19681,4.22498,476.577)">
                                <g>
                                    <g transform="matrix(0.359813,0,0,1.12756,211.407,-57.182)">
                                        <path d="M480,440.717C480,428.494 452.016,418.571 417.548,418.571L311.452,418.571C276.984,418.571 249,428.494 249,440.717L249,455.854C249,468.077 276.984,478 311.452,478L417.548,478C452.016,478 480,468.077 480,455.854L480,440.717Z" style="fill:rgb(32,80,18);"/>
                                    </g>
                                    <g transform="matrix(0.203463,0,0,1.12756,337.338,-57.182)">
                                        <path d="M480,435.831C480,426.305 441.429,418.571 393.92,418.571L335.08,418.571C287.571,418.571 249,426.305 249,435.831L249,460.74C249,470.266 287.571,478 335.08,478L393.92,478C441.429,478 480,470.266 480,460.74L480,435.831Z" style="fill:rgb(32,80,18);"/>
                                    </g>
                                </g>
                                <g>
                                    <g transform="matrix(0.608884,0,0,1.12756,585.068,-57.182)">
                                        <path d="M480,440.717C480,428.494 463.463,418.571 443.094,418.571L285.906,418.571C265.537,418.571 249,428.494 249,440.717L249,455.854C249,468.077 265.537,478 285.906,478L443.094,478C463.463,478 480,468.077 480,455.854L480,440.717Z" style="fill:rgb(122,91,5);"/>
                                    </g>
                                    <g transform="matrix(0.584416,0,0,1.12756,839.981,-57.182)">
                                        <path d="M480,440.717C480,428.494 462.771,418.571 441.549,418.571L287.451,418.571C266.229,418.571 249,428.494 249,440.717L249,455.854C249,468.077 266.229,478 287.451,478L441.549,478C462.771,478 480,468.077 480,455.854L480,440.717Z" style="fill:rgb(122,91,5);"/>
                                    </g>
                                </g>
                                <g>
                                    <g transform="matrix(0.599567,0,0,1.12756,1414.21,-57.182)">
                                        <path d="M480,440.717C480,428.494 463.206,418.571 442.521,418.571L286.479,418.571C265.794,418.571 249,428.494 249,440.717L249,455.854C249,468.077 265.794,478 286.479,478L442.521,478C463.206,478 480,468.077 480,455.854L480,440.717Z" style="fill:rgb(180,92,161);"/>
                                    </g>
                                    <g transform="matrix(0.573593,0,0,1.12756,1739.68,-57.182)">
                                        <path d="M480,440.717C480,428.494 462.446,418.571 440.824,418.571L288.176,418.571C266.554,418.571 249,428.494 249,440.717L249,455.854C249,468.077 266.554,478 288.176,478L440.824,478C462.446,478 480,468.077 480,455.854L480,440.717Z" style="fill:rgb(180,92,161);"/>
                                    </g>
                                </g>
                            </g>
                        </g>
                        <g id="_6" serif:id="6" transform="matrix(0.879523,0,0,1,31.4134,-22.7759)">
                            <g id="_61" serif:id="6" transform="matrix(1,0,0,0.713905,0,438.805)">
                                <g id="Link8" serif:id="Link" transform="matrix(0.202497,0,0,1.1643,1543.43,247.131)">
                                    <path d="M2132,363.472C2132,361.004 2125.82,359 2118.2,359L303.802,359C296.184,359 290,361.004 290,363.472L290,366.528C290,368.996 296.184,371 303.802,371L2118.2,371C2125.82,371 2132,368.996 2132,366.528L2132,363.472Z" style="fill:rgb(188,188,188);"/>
                                </g>
                                <g id="Link9" serif:id="Link" transform="matrix(0.4196,0,0,1.1643,196.571,247.131)">
                                    <path d="M2132,363.472C2132,361.004 2129.01,359 2125.34,359L296.661,359C292.985,359 290,361.004 290,363.472L290,366.528C290,368.996 292.985,371 296.661,371L2125.34,371C2129.01,371 2132,368.996 2132,366.528L2132,363.472Z" style="fill:rgb(188,188,188);"/>
                                </g>
                            </g>
                            <g transform="matrix(1,0,0,1.19681,4.22498,382.25)">
                                <g>
                                    <g transform="matrix(0.614719,0,0,1.12756,147.935,-57.182)">
                                        <path d="M480,440.717C480,428.494 463.62,418.571 443.445,418.571L285.555,418.571C265.38,418.571 249,428.494 249,440.717L249,455.854C249,468.077 265.38,478 285.555,478L443.445,478C463.62,478 480,468.077 480,455.854L480,440.717Z" style="fill:rgb(183,144,0);"/>
                                    </g>
                                    <g transform="matrix(0.603969,0,0,1.12756,566.112,-57.182)">
                                        <path d="M480,440.717C480,428.494 463.329,418.571 442.794,418.571L286.206,418.571C265.671,418.571 249,428.494 249,440.717L249,455.854C249,468.077 265.671,478 286.206,478L442.794,478C463.329,478 480,468.077 480,455.854L480,440.717Z" style="fill:rgb(183,144,0);"/>
                                    </g>
                                    <g transform="matrix(0.631843,0,0,1.12756,828.171,-57.182)">
                                        <path d="M480,440.717C480,428.494 464.064,418.571 444.435,418.571L284.565,418.571C264.936,418.571 249,428.494 249,440.717L249,455.854C249,468.077 264.936,478 284.565,478L444.435,478C464.064,478 480,468.077 480,455.854L480,440.717Z" style="fill:rgb(183,144,0);"/>
                                    </g>
                                </g>
                                <g>
                                    <g transform="matrix(0.551948,0,0,1.12756,1437.06,-57.182)">
                                        <path d="M480,440.717C480,428.494 461.757,418.571 439.287,418.571L289.713,418.571C267.243,418.571 249,428.494 249,440.717L249,455.854C249,468.077 267.243,478 289.713,478L439.287,478C461.757,478 480,468.077 480,455.854L480,440.717Z" style="fill:rgb(42,48,96);"/>
                                    </g>
                                    <g transform="matrix(0.615927,0,0,1.12756,1678.35,-57.182)">
                                        <path d="M480,440.717C480,428.494 463.652,418.571 443.516,418.571L285.484,418.571C265.348,418.571 249,428.494 249,440.717L249,455.854C249,468.077 265.348,478 285.484,478L443.516,478C463.652,478 480,468.077 480,455.854L480,440.717Z" style="fill:rgb(42,48,96);"/>
                                    </g>
                                </g>
                            </g>
                        </g>
                        <g id="_5" serif:id="5" transform="matrix(0.879523,0,0,1,31.4134,-18.2207)">
                            <g id="_51" serif:id="5" transform="matrix(1,0,0,0.713905,0,438.805)">
                                <g id="Link10" serif:id="Link" transform="matrix(0.0613194,0,0,1.17531,1000.49,107.956)">
                                    <path d="M2132,363.472C2132,361.004 2111.38,359 2085.99,359L336.009,359C310.616,359 290,361.004 290,363.472L290,366.528C290,368.996 310.616,371 336.009,371L2085.99,371C2111.38,371 2132,368.996 2132,366.528L2132,363.472Z" style="fill:rgb(188,188,188);"/>
                                </g>
                                <g id="Link11" serif:id="Link" transform="matrix(0.235179,0,0,1.17531,250.073,109.002)">
                                    <path d="M2132,363.472C2132,361.004 2126.62,359 2120,359L301.996,359C295.375,359 290,361.004 290,363.472L290,366.528C290,368.996 295.375,371 301.996,371L2120,371C2126.62,371 2132,368.996 2132,366.528L2132,363.472Z" style="fill:rgb(188,188,188);"/>
                                </g>
                                <g id="Link12" serif:id="Link" transform="matrix(0.173661,0,0,1.17531,1568.91,109.002)">
                                    <path d="M2132,363.472C2132,361.004 2124.72,359 2115.75,359L306.246,359C297.279,359 290,361.004 290,363.472L290,366.528C290,368.996 297.279,371 306.246,371L2115.75,371C2124.72,371 2132,368.996 2132,366.528L2132,363.472Z" style="fill:rgb(188,188,188);"/>
                                </g>
                            </g>
                            <g transform="matrix(1,0,0,1.19681,4.22498,287.924)">
                                <g>
                                    <g transform="matrix(0.63182,0,0,1.12756,156.727,-57.182)">
                                        <path d="M480,440.717C480,428.494 464.063,418.571 444.434,418.571L284.566,418.571C264.937,418.571 249,428.494 249,440.717L249,455.854C249,468.077 264.937,478 284.566,478L444.434,478C464.063,478 480,468.077 480,455.854L480,440.717Z" style="fill:rgb(79,182,46);"/>
                                    </g>
                                    <g transform="matrix(0.464764,0,0,1.12756,556.913,-57.182)">
                                        <path d="M480,440.717C480,428.494 458.335,418.571 431.65,418.571L297.35,418.571C270.665,418.571 249,428.494 249,440.717L249,455.854C249,468.077 270.665,478 297.35,478L431.65,478C458.335,478 480,468.077 480,455.854L480,440.717Z" style="fill:rgb(79,182,46);"/>
                                    </g>
                                    <g transform="matrix(0.341156,0,0,1.12756,378.745,-57.182)">
                                        <path d="M480,440.717C480,428.494 450.486,418.571 414.132,418.571L314.868,418.571C278.514,418.571 249,428.494 249,440.717L249,455.854C249,468.077 278.514,478 314.868,478L414.132,478C450.486,478 480,468.077 480,455.854L480,440.717Z" style="fill:rgb(79,182,46);"/>
                                    </g>
                                    <g transform="matrix(0.522642,0,0,1.12756,417.132,-57.182)">
                                        <path d="M480,440.717C480,428.494 460.734,418.571 437.005,418.571L291.995,418.571C268.266,418.571 249,428.494 249,440.717L249,455.854C249,468.077 268.266,478 291.995,478L437.005,478C460.734,478 480,468.077 480,455.854L480,440.717Z" style="fill:rgb(79,182,46);"/>
                                    </g>
                                </g>
                                <g>
                                    <g transform="matrix(0.301906,0,0,1.12756,992.585,-57.182)">
                                        <path d="M480,440.717C480,428.494 446.649,418.571 405.569,418.571L323.431,418.571C282.351,418.571 249,428.494 249,440.717L249,455.854C249,468.077 282.351,478 323.431,478L405.569,478C446.649,478 480,468.077 480,455.854L480,440.717Z" style="fill:rgb(42,48,96);"/>
                                    </g>
                                    <g transform="matrix(0.338855,0,0,1.12756,901.125,-57.182)">
                                        <path d="M480,440.717C480,428.494 450.285,418.571 413.685,418.571L315.315,418.571C278.715,418.571 249,428.494 249,440.717L249,455.854C249,468.077 278.715,478 315.315,478L413.685,478C450.285,478 480,468.077 480,455.854L480,440.717Z" style="fill:rgb(42,48,96);"/>
                                    </g>
                                </g>
                                <g>
                                    <g transform="matrix(0.472296,0,0,1.12756,1442.9,-57.182)">
                                        <path d="M480,440.717C480,428.494 458.681,418.571 432.421,418.571L296.579,418.571C270.319,418.571 249,428.494 249,440.717L249,455.854C249,468.077 270.319,478 296.579,478L432.421,478C458.681,478 480,468.077 480,455.854L480,440.717Z" style="fill:rgb(129,90,120);"/>
                                    </g>
                                    <g transform="matrix(0.368127,0,0,1.12756,1761.3,-57.182)">
                                        <path d="M480,440.717C480,428.494 452.648,418.571 418.958,418.571L310.042,418.571C276.352,418.571 249,428.494 249,440.717L249,455.854C249,468.077 276.352,478 310.042,478L418.958,478C452.648,478 480,468.077 480,455.854L480,440.717Z" style="fill:rgb(129,90,120);"/>
                                    </g>
                                    <g transform="matrix(0.746753,0,0,1.12756,1488.56,-57.182)">
                                        <path d="M480,440.717C480,428.494 466.516,418.571 449.908,418.571L279.092,418.571C262.484,418.571 249,428.494 249,440.717L249,455.854C249,468.077 262.484,478 279.092,478L449.908,478C466.516,478 480,468.077 480,455.854L480,440.717Z" style="fill:rgb(129,90,120);"/>
                                    </g>
                                </g>
                            </g>
                        </g>
                        <g id="_4" serif:id="4" transform="matrix(0.879523,0,0,1,31.4134,-13.6656)">
                            <g id="_41" serif:id="4" transform="matrix(1,0,0,0.713905,0,438.805)">
                                <g id="Link13" serif:id="Link" transform="matrix(0.262183,0,0,1.17531,1486.18,-20.9276)">
                                    <path d="M2132,363.472C2132,361.004 2127.18,359 2121.24,359L300.761,359C294.822,359 290,361.004 290,363.472L290,366.528C290,368.996 294.822,371 300.761,371L2121.24,371C2127.18,371 2132,368.996 2132,366.528L2132,363.472Z" style="fill:rgb(188,188,188);"/>
                                </g>
                                <g id="Link14" serif:id="Link" transform="matrix(0.056971,0,0,1.17531,301.695,-20.9276)">
                                    <path d="M2132,363.472C2132,361.004 2109.81,359 2082.48,359L339.52,359C312.189,359 290,361.004 290,363.472L290,366.528C290,368.996 312.189,371 339.52,371L2082.48,371C2109.81,371 2132,368.996 2132,366.528L2132,363.472Z" style="fill:rgb(188,188,188);"/>
                                </g>
                                <g id="Link15" serif:id="Link" transform="matrix(0.210065,0,0,1.17531,675.298,-20.9276)">
                                    <path d="M2132,363.472C2132,361.004 2125.98,359 2118.57,359L303.43,359C296.018,359 290,361.004 290,363.472L290,366.528C290,368.996 296.018,371 303.43,371L2118.57,371C2125.98,371 2132,368.996 2132,366.528L2132,363.472Z" style="fill:rgb(188,188,188);"/>
                                </g>
                            </g>
                            <g transform="matrix(1,0,0,1.19681,4.22498,193.598)">
                                <g>
                                    <g transform="matrix(0.621212,0,0,1.12756,537.818,-57.182)">
                                        <path d="M480,440.717C480,428.494 463.791,418.571 443.827,418.571L285.173,418.571C265.209,418.571 249,428.494 249,440.717L249,455.854C249,468.077 265.209,478 285.173,478L443.827,478C463.791,478 480,468.077 480,455.854L480,440.717Z" style="fill:rgb(183,144,0);"/>
                                    </g>
                                    <g transform="matrix(0.612554,0,0,1.12756,832.974,-57.182)">
                                        <path d="M480,440.717C480,428.494 463.562,418.571 443.316,418.571L285.684,418.571C265.438,418.571 249,428.494 249,440.717L249,455.854C249,468.077 265.438,478 285.684,478L443.316,478C463.562,478 480,468.077 480,455.854L480,440.717Z" style="fill:rgb(183,144,0);"/>
                                    </g>
                                </g>
                                <g>
                                    <g transform="matrix(0.25974,0,0,1.12756,315.325,-57.182)">
                                        <path d="M480,440.605C480,428.444 441.429,418.571 393.92,418.571L335.08,418.571C287.571,418.571 249,428.444 249,440.605L249,455.966C249,468.127 287.571,478 335.08,478L393.92,478C441.429,478 480,468.127 480,455.966L480,440.605Z" style="fill:rgb(67,124,50);"/>
                                    </g>
                                    <g transform="matrix(0.330309,0,0,1.12756,215.753,-57.182)">
                                        <path d="M480,440.717C480,428.494 449.516,418.571 411.969,418.571L317.031,418.571C279.484,418.571 249,428.494 249,440.717L249,455.854C249,468.077 279.484,478 317.031,478L411.969,478C449.516,478 480,468.077 480,455.854L480,440.717Z" style="fill:rgb(67,124,50);"/>
                                    </g>
                                </g>
                                <g>
                                    <g transform="matrix(0.634199,0,0,1.12756,1397.58,-57.182)">
                                        <path d="M480,440.717C480,428.494 464.123,418.571 444.568,418.571L284.432,418.571C264.877,418.571 249,428.494 249,440.717L249,455.854C249,468.077 264.877,478 284.432,478L444.568,478C464.123,478 480,468.077 480,455.854L480,440.717Z" style="fill:rgb(223,94,157);"/>
                                    </g>
                                    <g transform="matrix(0.625541,0,0,1.12756,1749.74,-57.182)">
                                        <path d="M480,440.717C480,428.494 463.904,418.571 444.077,418.571L284.923,418.571C265.096,418.571 249,428.494 249,440.717L249,455.854C249,468.077 265.096,478 284.923,478L444.077,478C463.904,478 480,468.077 480,455.854L480,440.717Z" style="fill:rgb(223,94,157);"/>
                                    </g>
                                </g>
                            </g>
                        </g>
                        <g id="_3" serif:id="3" transform="matrix(0.879523,0,0,1,31.4134,-9.11037)">
                            <g id="_31" serif:id="3" transform="matrix(1,0,0,0.713905,0,438.805)">
                                <g id="Link16" serif:id="Link" transform="matrix(0.0678385,0,0,1.17531,1933.53,-152.976)">
                                    <path d="M2132,363.472C2132,361.004 2113.37,359 2090.41,359L331.587,359C308.635,359 290,361.004 290,363.472L290,366.528C290,368.996 308.635,371 331.587,371L2090.41,371C2113.37,371 2132,368.996 2132,366.528L2132,363.472Z" style="fill:rgb(188,188,188);"/>
                                </g>
                                <g id="Link17" serif:id="Link" transform="matrix(0.321367,0,0,1.17531,1006,-152.976)">
                                    <path d="M2132,363.472C2132,361.004 2128.07,359 2123.22,359L298.779,359C293.934,359 290,361.004 290,363.472L290,366.528C290,368.996 293.934,371 298.779,371L2123.22,371C2128.07,371 2132,368.996 2132,366.528L2132,363.472Z" style="fill:rgb(188,188,188);"/>
                                </g>
                                <g id="Link18" serif:id="Link" transform="matrix(0.289337,0,0,1.17531,234.291,-152.976)">
                                    <path d="M2132,363.472C2132,361.004 2127.63,359 2122.25,359L299.751,359C294.369,359 290,361.004 290,363.472L290,366.528C290,368.996 294.369,371 299.751,371L2122.25,371C2127.63,371 2132,368.996 2132,366.528L2132,363.472Z" style="fill:rgb(188,188,188);"/>
                                </g>
                            </g>
                            <g transform="matrix(1,0,0,1.19681,4.22498,99.2721)">
                                <g>
                                    <g transform="matrix(0.584416,0,0,1.12756,152.481,-57.182)">
                                        <path d="M480,440.717C480,428.494 462.771,418.571 441.549,418.571L287.451,418.571C266.229,418.571 249,428.494 249,440.717L249,455.854C249,468.077 266.229,478 287.451,478L441.549,478C462.771,478 480,468.077 480,455.854L480,440.717Z" style="fill:rgb(32,80,18);"/>
                                    </g>
                                    <g transform="matrix(0.592517,0,0,1.12756,576.963,-57.182)">
                                        <path d="M480,440.717C480,428.494 463.006,418.571 442.075,418.571L286.925,418.571C265.994,418.571 249,428.494 249,440.717L249,455.854C249,468.077 265.994,478 286.925,478L442.075,478C463.006,478 480,468.077 480,455.854L480,440.717Z" style="fill:rgb(32,80,18);"/>
                                    </g>
                                </g>
                                <g>
                                    <g transform="matrix(0.630633,0,0,1.12756,836.296,-57.182)">
                                        <path d="M480,440.717C480,428.494 464.033,418.571 444.367,418.571L284.633,418.571C264.967,418.571 249,428.494 249,440.717L249,455.854C249,468.077 264.967,478 284.633,478L444.367,478C464.033,478 480,468.077 480,455.854L480,440.717Z" style="fill:rgb(54,101,173);"/>
                                    </g>
                                    <g transform="matrix(0.634199,0,0,1.12756,1404.58,-57.182)">
                                        <path d="M480,440.717C480,428.494 464.123,418.571 444.568,418.571L284.432,418.571C264.877,418.571 249,428.494 249,440.717L249,455.854C249,468.077 264.877,478 284.432,478L444.568,478C464.123,478 480,468.077 480,455.854L480,440.717Z" style="fill:rgb(54,101,173);"/>
                                    </g>
                                </g>
                                <g>
                                    <g transform="matrix(0.249323,0,0,1.12756,1954.92,-57.182)">
                                        <path d="M480,439.722C480,428.048 441.429,418.571 393.92,418.571L335.08,418.571C287.571,418.571 249,428.048 249,439.722L249,456.849C249,468.523 287.571,478 335.08,478L393.92,478C441.429,478 480,468.523 480,456.849L480,439.722Z" style="fill:rgb(180,92,161);"/>
                                    </g>
                                    <g transform="matrix(0.347403,0,0,1.12756,1846,-57.182)">
                                        <path d="M480,440.717C480,428.494 451.016,418.571 415.317,418.571L313.683,418.571C277.984,418.571 249,428.494 249,440.717L249,455.854C249,468.077 277.984,478 313.683,478L415.317,478C451.016,478 480,468.077 480,455.854L480,440.717Z" style="fill:rgb(180,92,161);"/>
                                    </g>
                                </g>
                            </g>
                        </g>
                        <g id="_2" serif:id="2" transform="matrix(0.879523,0,0,1,31.4134,-4.55518)">
                            <g id="_21" serif:id="2" transform="matrix(1,0,0,0.713905,0,438.805)">
                                <g id="Link19" serif:id="Link" transform="matrix(0.264359,0,0,1.17531,1497.54,-285.024)">
                                    <path d="M2132,363.472C2132,361.004 2127.22,359 2121.33,359L300.672,359C294.782,359 290,361.004 290,363.472L290,366.528C290,368.996 294.782,371 300.672,371L2121.33,371C2127.22,371 2132,368.996 2132,366.528L2132,363.472Z" style="fill:rgb(188,188,188);"/>
                                </g>
                                <g id="Link20" serif:id="Link" transform="matrix(0.0421806,0,0,1.17531,1018.89,-285.024)">
                                    <path d="M2132,363.472C2132,361.004 2102.03,359 2065.12,359L356.884,359C319.97,359 290,361.004 290,363.472L290,366.528C290,368.996 319.97,371 356.884,371L2065.12,371C2102.03,371 2132,368.996 2132,366.528L2132,363.472Z" style="fill:rgb(188,188,188);"/>
                                </g>
                                <g id="Link21" serif:id="Link" transform="matrix(0.276303,0,0,1.17531,238.08,-285.024)">
                                    <path d="M2132,363.472C2132,361.004 2127.43,359 2121.79,359L300.211,359C294.575,359 290,361.004 290,363.472L290,366.528C290,368.996 294.575,371 300.211,371L2121.79,371C2127.43,371 2132,368.996 2132,366.528L2132,363.472Z" style="fill:rgb(188,188,188);"/>
                                </g>
                            </g>
                            <g transform="matrix(1,0,0,1.19681,4.22498,4.94598)">
                                <g>
                                    <g transform="matrix(0.584416,0,0,1.12756,161.481,-57.182)">
                                        <path d="M480,440.717C480,428.494 462.771,418.571 441.549,418.571L287.451,418.571C266.229,418.571 249,428.494 249,440.717L249,455.854C249,468.077 266.229,478 287.451,478L441.549,478C462.771,478 480,468.077 480,455.854L480,440.717Z" style="fill:rgb(79,182,46);"/>
                                    </g>
                                    <g transform="matrix(0.582251,0,0,1.12756,560.519,-57.182)">
                                        <path d="M480,440.717C480,428.494 462.707,418.571 441.406,418.571L287.594,418.571C266.293,418.571 249,428.494 249,440.717L249,455.854C249,468.077 266.293,478 287.594,478L441.406,478C462.707,478 480,468.077 480,455.854L480,440.717Z" style="fill:rgb(79,182,46);"/>
                                    </g>
                                </g>
                                <g>
                                    <g transform="matrix(0.329062,0,0,1.12756,990.05,-57.182)">
                                        <path d="M480,440.717C480,428.494 449.401,418.571 411.711,418.571L317.289,418.571C279.599,418.571 249,428.494 249,440.717L249,455.854C249,468.077 279.599,478 317.289,478L411.711,478C449.401,478 480,468.077 480,455.854L480,440.717Z" style="fill:rgb(203,130,20);"/>
                                    </g>
                                    <g transform="matrix(0.356061,0,0,1.12756,894.841,-57.182)">
                                        <path d="M480,440.717C480,428.494 451.721,418.571 416.889,418.571L312.111,418.571C277.279,418.571 249,428.494 249,440.717L249,455.854C249,468.077 277.279,478 312.111,478L416.889,478C451.721,478 480,468.077 480,455.854L480,440.717Z" style="fill:rgb(203,130,20);"/>
                                    </g>
                                </g>
                                <g>
                                    <g transform="matrix(0.712121,0,0,1.12756,1382.18,-57.182)">
                                        <path d="M480,440.717C480,428.494 465.861,418.571 448.445,418.571L280.555,418.571C263.139,418.571 249,428.494 249,440.717L249,455.854C249,468.077 263.139,478 280.555,478L448.445,478C465.861,478 480,468.077 480,455.854L480,440.717Z" style="fill:rgb(104,143,181);"/>
                                    </g>
                                    <g transform="matrix(0.668831,0,0,1.12756,1742.96,-57.182)">
                                        <path d="M480,440.717C480,428.494 464.945,418.571 446.402,418.571L282.598,418.571C264.055,418.571 249,428.494 249,440.717L249,455.854C249,468.077 264.055,478 282.598,478L446.402,478C464.945,478 480,468.077 480,455.854L480,440.717Z" style="fill:rgb(104,143,181);"/>
                                    </g>
                                </g>
                            </g>
                        </g>
                        <g id="_1" serif:id="1" transform="matrix(0.879523,0,0,1,31.4134,0)">
                            <g id="_11" serif:id="1" transform="matrix(1,0,0,0.713905,0,438.805)">
                                <g id="Link22" serif:id="Link" transform="matrix(0.490171,0,0,1.17531,892.113,-417.73)">
                                    <path d="M2132,363.472C2132,361.004 2129.42,359 2126.24,359L295.756,359C292.579,359 290,361.004 290,363.472L290,366.528C290,368.996 292.579,371 295.756,371L2126.24,371C2129.42,371 2132,368.996 2132,366.528L2132,363.472Z" style="fill:rgb(188,188,188);"/>
                                </g>
                                <g id="Link23" serif:id="Link" transform="matrix(0.226699,0,0,1.17531,251.177,-420.817)">
                                    <path d="M2132,363.472C2132,361.004 2126.42,359 2119.55,359L302.445,359C295.576,359 290,361.004 290,363.472L290,366.528C290,368.996 295.576,371 302.445,371L2119.55,371C2126.42,371 2132,368.996 2132,366.528L2132,363.472Z" style="fill:rgb(188,188,188);"/>
                                </g>
                            </g>
                            <g transform="matrix(1,0,0,1.19681,0,-89.3801)">
                                <g>
                                    <g transform="matrix(1.22622,0,0,1.12756,-44.5866,-57.182)">
                                        <path d="M480,440.717C480,428.494 471.789,418.571 461.674,418.571L267.326,418.571C257.211,418.571 249,428.494 249,440.717L249,455.854C249,468.077 257.211,478 267.326,478L461.674,478C471.789,478 480,468.077 480,455.854L480,440.717Z" style="fill:rgb(67,124,50);"/>
                                    </g>
                                    <g transform="matrix(0.916025,0,0,1.12756,319.996,-57.182)">
                                        <path d="M480,440.717C480,428.494 469.008,418.571 455.469,418.571L273.531,418.571C259.992,418.571 249,428.494 249,440.717L249,455.854C249,468.077 259.992,478 273.531,478L455.469,478C469.008,478 480,468.077 480,455.854L480,440.717Z" style="fill:rgb(67,124,50);"/>
                                    </g>
                                </g>
                                <g>
                                    <g transform="matrix(0.816017,0,0,1.12756,767.312,-57.182)">
                                        <path d="M480,440.717C480,428.494 467.661,418.571 452.462,418.571L276.538,418.571C261.339,418.571 249,428.494 249,440.717L249,455.854C249,468.077 261.339,478 276.538,478L452.462,478C467.661,478 480,468.077 480,455.854L480,440.717Z" style="fill:rgb(42,48,96);"/>
                                    </g>
                                    <g transform="matrix(0.764801,0,0,1.12756,1342.06,-57.182)">
                                        <path d="M480,440.717C480,428.494 466.834,418.571 450.618,418.571L278.382,418.571C262.166,418.571 249,428.494 249,440.717L249,455.854C249,468.077 262.166,478 278.382,478L450.618,478C466.834,478 480,468.077 480,455.854L480,440.717Z" style="fill:rgb(42,48,96);"/>
                                    </g>
                                    <g transform="matrix(0.513679,0,0,1.12756,1718.43,-57.182)">
                                        <path d="M480,440.717C480,428.494 460.398,418.571 436.254,418.571L292.746,418.571C268.602,418.571 249,428.494 249,440.717L249,455.854C249,468.077 268.602,478 292.746,478L436.254,478C460.398,478 480,468.077 480,455.854L480,440.717Z" style="fill:rgb(42,48,96);"/>
                                    </g>
                                    <g transform="matrix(0.537879,0,0,1.12756,1581.57,-57.182)">
                                        <path d="M480,440.717C480,428.494 461.28,418.571 438.223,418.571L290.777,418.571C267.72,418.571 249,428.494 249,440.717L249,455.854C249,468.077 267.72,478 290.777,478L438.223,478C461.28,478 480,468.077 480,455.854L480,440.717Z" style="fill:rgb(42,48,96);"/>
                                    </g>
                                </g>
                            </g>
                        </g>
                    </g>
                </g>
            </g>
        </g>
    </g>
</svg>
